<svg width="12" height="32" fill="none" xmlns="http://www.w3.org/2000/svg"><g filter="url(#filter0_d)"><path d="M5.548 23.066c.533 0 1.012.062 1.435.185.438.123.807.294 1.108.513.314.205.554.465.718.779.177.3.266.636.266 1.005 0 .725-.307 1.326-.923 1.805-.601.464-1.47.697-2.604.697-1.135 0-2.01-.219-2.625-.656C2.308 26.956 2 26.34 2 25.548c0-.711.314-1.299.943-1.764.63-.478 1.497-.718 2.605-.718zM9.055 1c.013.11.02.28.02.513.014.232.02.478.02.738.014.246.021.485.021.718v.512c0 .493-.034 1.149-.102 1.97-.069.806-.158 1.708-.267 2.706-.11.985-.232 2.01-.37 3.076a296.122 296.122 0 01-.41 3.077 101.51 101.51 0 01-.41 2.707 66.453 66.453 0 01-.348 1.927H4.174a57.46 57.46 0 01-.349-1.907 252.625 252.625 0 01-1.169-8.92 254.08 254.08 0 01-.246-2.728 25.669 25.669 0 01-.102-1.99V2.21c.013-.246.02-.479.02-.697.014-.233.027-.404.041-.513h6.686z" fill="#C0D355"/></g><defs><filter id="filter0_d" x="0" y="0" width="11.116" height="31.05" filterUnits="userSpaceOnUse" color-interpolation-filters="sRGB"><feFlood flood-opacity="0" result="BackgroundImageFix"/><feColorMatrix in="SourceAlpha" values="0 0 0 0 0 0 0 0 0 0 0 0 0 0 0 0 0 0 127 0" result="hardAlpha"/><feOffset dy="1"/><feGaussianBlur stdDeviation="1"/><feComposite in2="hardAlpha" operator="out"/><feColorMatrix values="0 0 0 0 0.752941 0 0 0 0 0.827451 0 0 0 0 0.333333 0 0 0 0.5 0"/><feBlend in2="BackgroundImageFix" result="effect1_dropShadow"/><feBlend in="SourceGraphic" in2="effect1_dropShadow" result="shape"/></filter></defs></svg>